<?xml version="1.0" standalone="no"?>
<!DOCTYPE svg PUBLIC "-//W3C//DTD SVG 1.1//EN" "http://www.w3.org/Graphics/SVG/1.1/DTD/svg11.dtd" >
<svg xmlns="http://www.w3.org/2000/svg">
<metadata>Generated by IcoMoon</metadata>
<defs>
<font id="dash-pictorials" horiz-adv-x="1024">
<font-face units-per-em="1024" ascent="960" descent="-64" />
<missing-glyph horiz-adv-x="1024" />
<glyph unicode="&#x20;" horiz-adv-x="512" d="" />
<glyph unicode="&#xe900;" glyph-name="close-icon" d="M793.031 195.413l-257.138 252.587 251.449 258.276-22.756 23.893-252.587-258.276-258.276 252.587-23.893-23.893 257.138-252.587-252.587-257.138 25.031-23.893 252.587 257.138 257.138-252.587z" />
<glyph unicode="&#xe901;" glyph-name="cyber-icon" d="M512 823.036c-113.778 0-205.938-92.16-205.938-205.938v-86.471h-46.649c-38.684 0-71.68-32.996-71.68-71.68v-314.027c0-39.822 31.858-71.68 71.68-71.68h505.173c38.684 0 71.68 31.858 71.68 71.68v314.027c0 39.822-31.858 71.68-71.68 71.68h-46.649v86.471c0 113.778-92.16 205.938-205.938 205.938zM512 777.525c88.747 0 159.289-69.404 159.289-159.289v-86.471h-318.578v86.471c0 87.609 70.542 159.289 159.289 159.289zM259.413 481.703h505.173c13.653 0 23.893-10.24 23.893-23.893v-314.027c0-13.653-10.24-23.893-23.893-23.893h-505.173c-13.653 0-23.893 10.24-23.893 23.893v314.027c-1.138 13.653 9.102 23.893 23.893 23.893zM512 420.263c-45.511 0-84.196-37.547-84.196-84.196 0-20.48 9.102-39.822 21.618-52.338v-51.2c0-27.307 22.756-50.062 50.062-50.062h23.893c27.307 0 50.062 21.618 50.062 50.062v51.2c13.653 15.929 21.618 32.996 21.618 52.338 0 46.649-37.547 84.196-83.058 84.196v0zM512 372.476c20.48 0 35.271-15.929 35.271-35.271 0-11.378-4.551-20.48-13.653-27.307-5.689-4.551-9.102-11.378-9.102-18.204v-58.027c0-1.138 0-1.138-2.276-1.138h-23.893c-2.276 0-2.276 0-2.276 1.138v58.027c0 6.827-3.413 13.653-9.102 18.204-9.102 6.827-13.653 17.067-13.653 27.307 2.276 20.48 18.204 35.271 38.684 35.271v0z" />
<glyph unicode="&#xe902;" glyph-name="down-arrow-icon" d="M486.969 168.107l-263.964 262.827c-9.102 9.102-23.893 9.102-34.133 0-10.24-10.24-9.102-23.893 0-34.133l304.924-303.787c5.689-5.689 10.24-6.827 17.067-6.827s11.378 2.276 17.067 6.827l306.062 306.062c9.102 9.102 9.102 23.893 0 34.133-10.24 10.24-23.893 9.102-34.133 0l-263.964-265.102v617.813c0 13.653-10.24 23.893-23.893 23.893s-23.893-10.24-23.893-23.893v-617.813z" />
<glyph unicode="&#xe903;" glyph-name="dropdown-arrow-icon" d="M855.609 639.147c-19.342 18.204-51.2 18.204-70.542 0l-275.342-277.618-273.067 273.067c-19.342 20.48-48.924 20.48-70.542 1.138-20.48-18.204-20.48-50.062-2.276-69.404l2.276-1.138 307.2-307.2c18.204-18.204 51.2-18.204 69.404 0l311.751 311.751c22.756 18.204 22.756 51.2 1.138 69.404z" />
<glyph unicode="&#xe904;" glyph-name="governance-icon" d="M861.298 402.489c6.827 0 13.653 6.827 13.653 13.653v69.404c0 6.827-6.827 13.653-13.653 13.653h-176.356c-10.24 84.196-79.644 149.049-163.84 153.6v40.96h136.533c6.827 0 13.653 6.827 13.653 13.653v94.436c0 6.827-6.827 13.653-13.653 13.653h-149.049c-6.827 0-13.653-6.827-13.653-13.653v-149.049c-81.92-9.102-146.773-71.68-157.013-151.324h-176.356c-6.827 0-13.653-6.827-13.653-13.653v-69.404c0-6.827 6.827-13.653 13.653-13.653h37.547v-221.867h-37.547c-6.827 0-13.653-6.827-13.653-13.653v-70.542c0-6.827 6.827-13.653 13.653-13.653h699.733c6.827 0 13.653 6.827 13.653 13.653v70.542c0 6.827-6.827 13.653-13.653 13.653h-30.72v220.729h30.72v-1.138zM521.102 788.196h122.88v-67.129h-122.88v67.129zM512 625.493c73.956 0 136.533-54.613 146.773-126.293h-293.547c10.24 71.68 72.818 126.293 146.773 126.293zM175.218 471.893h670.151v-43.236h-670.151v43.236zM629.191 180.622v221.867h72.818v-221.867h-72.818zM529.067 180.622v221.867h73.956v-221.867h-73.956zM427.804 180.622v221.867h72.818v-221.867h-72.818zM328.818 180.622v221.867h72.818v-221.867h-72.818zM227.556 402.489h73.956v-221.867h-72.818c0 0 0 221.867-1.138 221.867zM847.644 108.942h-672.427v43.236h672.427v-43.236zM803.271 180.622h-72.818v221.867h72.818v-221.867z" />
<glyph unicode="&#xe905;" glyph-name="grid-icon" d="M290.133 581.12c-48.924 0-88.747 39.822-88.747 88.747s38.684 88.747 88.747 88.747 88.747-38.684 88.747-88.747-39.822-88.747-88.747-88.747zM290.133 727.893c-31.858 0-59.164-27.307-59.164-59.164 0-32.996 27.307-59.164 59.164-59.164 32.996 0 59.164 27.307 59.164 59.164 0 34.133-27.307 59.164-59.164 59.164zM512 581.12c-50.062 0-88.747 39.822-88.747 88.747s38.684 88.747 88.747 88.747 88.747-38.684 88.747-88.747-39.822-88.747-88.747-88.747zM512 727.893c-32.996 0-59.164-27.307-59.164-59.164 0-32.996 27.307-59.164 59.164-59.164s59.164 27.307 59.164 59.164c0 34.133-27.307 59.164-59.164 59.164zM732.729 581.12c-48.924 0-88.747 39.822-88.747 88.747s38.684 88.747 88.747 88.747c50.062 0 88.747-38.684 88.747-88.747s-39.822-88.747-88.747-88.747zM732.729 727.893c-31.858 0-59.164-27.307-59.164-59.164 0-32.996 27.307-59.164 59.164-59.164 32.996 0 59.164 27.307 59.164 59.164 0 34.133-26.169 59.164-59.164 59.164zM290.133 359.253c-48.924 0-88.747 39.822-88.747 88.747s38.684 88.747 88.747 88.747 88.747-39.822 88.747-88.747-39.822-88.747-88.747-88.747zM290.133 508.302c-31.858 0-59.164-27.307-59.164-59.164s27.307-59.164 59.164-59.164c32.996 0 59.164 27.307 59.164 59.164s-27.307 59.164-59.164 59.164zM512 359.253c-50.062 0-88.747 39.822-88.747 88.747s38.684 88.747 88.747 88.747 88.747-39.822 88.747-88.747-39.822-88.747-88.747-88.747zM512 508.302c-32.996 0-59.164-27.307-59.164-59.164s27.307-59.164 59.164-59.164 59.164 27.307 59.164 59.164-27.307 59.164-59.164 59.164zM732.729 359.253c-48.924 0-88.747 39.822-88.747 88.747s38.684 88.747 88.747 88.747c50.062 0 88.747-39.822 88.747-88.747s-39.822-88.747-88.747-88.747zM732.729 508.302c-31.858 0-59.164-27.307-59.164-59.164s27.307-59.164 59.164-59.164c32.996 0 59.164 27.307 59.164 59.164s-26.169 59.164-59.164 59.164zM290.133 137.387c-48.924 0-88.747 39.822-88.747 88.747s38.684 88.747 88.747 88.747 88.747-39.822 88.747-88.747c-1.138-47.787-39.822-88.747-88.747-88.747zM290.133 286.436c-31.858 0-59.164-27.307-59.164-59.164s27.307-59.164 59.164-59.164c32.996 0 59.164 27.307 59.164 59.164s-27.307 59.164-59.164 59.164zM512 137.387c-50.062 0-88.747 39.822-88.747 88.747s38.684 88.747 88.747 88.747 88.747-39.822 88.747-88.747c0-47.787-39.822-88.747-88.747-88.747zM512 286.436c-32.996 0-59.164-27.307-59.164-59.164s27.307-59.164 59.164-59.164 59.164 27.307 59.164 59.164c0 31.858-27.307 59.164-59.164 59.164zM732.729 137.387c-48.924 0-88.747 39.822-88.747 88.747s38.684 88.747 88.747 88.747c50.062 0 88.747-39.822 88.747-88.747 0-47.787-39.822-88.747-88.747-88.747zM732.729 286.436c-31.858 0-59.164-27.307-59.164-59.164s27.307-59.164 59.164-59.164c32.996 0 59.164 27.307 59.164 59.164s-26.169 59.164-59.164 59.164z" />
<glyph unicode="&#xe906;" glyph-name="keyword-icon" d="M512 779.093c-200.249 0-360.676-134.258-360.676-300.373 0-106.951 68.267-201.387 170.667-256-12.516-31.858-32.996-58.027-59.164-79.644-4.551-3.413-4.551-12.516-3.413-17.067 1.138-5.689 9.102-9.102 13.653-9.102 58.027 0 122.88 27.307 176.356 64.853 20.48-3.413 43.236-4.551 64.853-4.551 200.249 0 360.676 134.258 360.676 300.373-1.138 167.253-163.84 301.511-362.951 301.511zM386.844 440.036c-20.48 0-38.684 17.067-38.684 38.684 0 20.48 17.067 39.822 38.684 39.822 20.48 0 39.822-17.067 39.822-39.822 0-21.618-17.067-38.684-39.822-38.684zM512 440.036c-20.48 0-39.822 17.067-39.822 38.684 0 20.48 17.067 39.822 39.822 39.822 20.48 0 39.822-17.067 39.822-39.822-1.138-21.618-19.342-38.684-39.822-38.684zM636.018 440.036c-20.48 0-39.822 17.067-39.822 38.684 0 20.48 17.067 39.822 39.822 39.822 20.48 0 38.684-17.067 38.684-39.822-1.138-21.618-18.204-38.684-38.684-38.684z" />
<glyph unicode="&#xe907;" glyph-name="list-icon" d="M283.307 752.924c-46.649 0-84.196-37.547-84.196-84.196v-4.551c0-45.511 37.547-84.196 84.196-84.196s83.058 37.547 83.058 84.196v5.689c0 45.511-37.547 83.058-83.058 83.058zM332.231 664.178c0-27.307-21.618-50.062-48.924-50.062s-50.062 22.756-50.062 50.062v5.689c0 27.307 21.618 48.924 50.062 48.924s48.924-21.618 48.924-48.924v-5.689zM283.307 535.609c-46.649 0-84.196-37.547-84.196-84.196v-4.551c0-46.649 37.547-84.196 84.196-84.196s83.058 37.547 83.058 84.196v4.551c0 46.649-37.547 84.196-83.058 84.196zM332.231 446.862c0-27.307-21.618-50.062-48.924-50.062s-50.062 22.756-50.062 50.062v5.689c0 27.307 21.618 50.062 50.062 50.062s48.924-22.756 48.924-50.062v-5.689zM283.307 316.018c-46.649 0-84.196-37.547-84.196-84.196v-4.551c0-46.649 37.547-84.196 84.196-84.196s83.058 37.547 83.058 84.196v4.551c0 46.649-37.547 84.196-83.058 84.196zM332.231 227.271c0-27.307-21.618-50.062-48.924-50.062s-50.062 21.618-50.062 50.062v4.551c0 27.307 21.618 50.062 50.062 50.062s48.924-22.756 48.924-50.062v-4.551zM453.973 672.142h370.916v-34.133h-370.916v34.133zM453.973 245.476h370.916v-34.133h-370.916v34.133zM453.973 450.276h370.916v-34.133h-370.916v34.133z" />
<glyph unicode="&#xe908;" glyph-name="menu-icon" d="M254.862 644.836h514.276v-34.133h-514.276v34.133zM254.862 286.436h514.276v-34.133h-514.276v34.133zM254.862 465.067h514.276v-34.133h-514.276v34.133z" />
<glyph unicode="&#xe909;" glyph-name="organization-icon" d="M725.902 276.196h185.458c0 88.747-69.404 170.667-157.013 170.667-36.409 0-70.542-13.653-97.849-35.271 39.822-36.409 62.578-83.058 69.404-135.396zM841.956 536.747c0-46.5-37.696-84.196-84.196-84.196s-84.196 37.696-84.196 84.196c0 46.5 37.696 84.196 84.196 84.196s84.196-37.696 84.196-84.196zM362.951 409.316c-27.307 23.893-61.44 38.684-98.987 38.684-85.333 0-157.013-81.92-157.013-170.667h185.458c10.24 51.2 35.271 97.849 70.542 131.982zM350.436 536.747c0-46.5-37.696-84.196-84.196-84.196s-84.196 37.696-84.196 84.196c0 46.5 37.696 84.196 84.196 84.196s84.196-37.696 84.196-84.196zM615.538 562.916c0-57.182-46.355-103.538-103.538-103.538s-103.538 46.355-103.538 103.538c0 57.182 46.355 103.538 103.538 103.538s103.538-46.355 103.538-103.538zM315.164 229.547c0 119.467 88.747 216.178 195.698 216.178s195.698-96.711 195.698-216.178h-391.396z" />
<glyph unicode="&#xe90a;" glyph-name="search-alt-icon" d="M837.404 197.689l-137.671 137.671c78.507 112.64 67.129 269.653-34.133 370.916-112.64 112.64-296.96 112.64-411.876 0-112.64-112.64-112.64-296.96 0-411.876 56.889-55.751 130.844-85.333 204.8-85.333 58.027 0 114.916 17.067 163.84 51.2l137.671-138.809c10.24-10.24 23.893-14.791 37.547-14.791s27.307 5.689 37.547 14.791c25.031 21.618 25.031 53.476 2.276 76.231zM328.818 369.493c-71.68 71.68-71.68 188.871 0 260.551 35.271 35.271 84.196 54.613 129.707 54.613 47.787 0 93.298-18.204 129.707-54.613 71.68-71.68 71.68-190.009 0-260.551-69.404-71.68-187.733-71.68-259.413 0z" />
<glyph unicode="&#xe90b;" glyph-name="search-icon" d="M860.16 130.56l-142.222 129.707c48.924 55.751 81.92 131.982 81.92 211.627 0 177.493-143.36 320.853-320.853 320.853s-320.853-143.36-320.853-320.853 143.36-320.853 320.853-320.853c81.92 0 157.013 32.996 215.040 84.196l141.084-128.569 25.031 23.893zM479.004 187.449c-158.151 0-286.72 127.431-286.72 286.72s127.431 286.72 286.72 286.72 286.72-127.431 286.72-286.72c-1.138-159.289-129.707-286.72-286.72-286.72z" />
<glyph unicode="&#xe90c;" glyph-name="star-filled-icon" d="M864.711 529.92c-3.413 12.516-13.653 20.48-27.307 22.756l-204.8 28.444-92.16 186.596c-5.689 12.516-17.067 18.204-28.444 18.204-12.516 0-23.893-6.827-29.582-18.204l-92.16-186.596-204.8-28.444c-12.516-1.138-21.618-10.24-27.307-22.756-5.689-11.378 0-25.031 9.102-34.133l147.911-145.636-34.133-202.524c-2.276-11.378 3.413-23.893 13.653-31.858 10.24-6.827 23.893-9.102 34.133-3.413l183.182 96.711 182.044-95.573c5.689-3.413 10.24-3.413 15.929-3.413 6.827 0 13.653 1.138 18.204 6.827 10.24 6.827 15.929 20.48 13.653 31.858l-34.133 203.662 147.911 145.636c9.102 7.964 12.516 20.48 9.102 31.858zM314.027 146.489h3.413l-4.551-1.138 1.138 1.138z" />
<glyph unicode="&#xe90d;" glyph-name="star-outline-icon" d="M708.836 110.080c-4.551 0-10.24 1.138-15.929 3.413l-180.907 95.573-183.182-95.573c-12.516-6.827-23.893-4.551-34.133 3.413s-15.929 20.48-13.653 31.858l34.133 203.662-149.049 145.636c-9.102 9.102-12.516 22.756-9.102 34.133s13.653 20.48 27.307 22.756l204.8 28.444 92.16 185.458c5.689 12.516 17.067 19.342 28.444 19.342 12.516 0 23.893-6.827 29.582-19.342l92.16-185.458 204.8-28.444c12.516-2.276 22.756-10.24 27.307-22.756s0-25.031-9.102-34.133l-146.773-145.636 34.133-203.662c2.276-12.516-3.413-23.893-13.653-31.858-4.551-4.551-11.378-6.827-19.342-6.827zM512 243.2c5.689 0 10.24-1.138 13.653-3.413l184.32-96.711-34.133 204.8c-1.138 10.24 1.138 20.48 9.102 27.307l149.049 145.636-204.8 30.72c-10.24 1.138-19.342 6.827-22.756 17.067l-94.436 185.458-92.16-185.458c-4.551-9.102-13.653-15.929-21.618-17.067l-207.076-30.72 147.911-145.636c6.827-6.827 10.24-17.067 9.102-27.307l-35.271-204.8 184.32 97.849c4.551 1.138 9.102 2.276 14.791 2.276z" />
<glyph unicode="&#xe90e;" glyph-name="sustainability-icon" d="M833.991 560.64h-15.929v80.782c0 44.373-35.271 80.782-79.644 80.782h-516.551c-44.373 0-80.782-36.409-80.782-80.782v-290.133c0-44.373 36.409-79.644 80.782-79.644h242.347v-64.853h-112.64c-9.102 0-15.929-6.827-15.929-14.791s5.689-17.067 14.791-17.067h257.138c9.102 0 15.929 6.827 15.929 14.791s-6.827 15.929-15.929 15.929h-112.64v64.853h160.427v-47.787c0-27.307 22.756-47.787 47.787-47.787h129.707c27.307 0 47.787 21.618 47.787 47.787v290.133c1.138 26.169-20.48 47.787-46.649 47.787zM689.493 287.573v176.356h160.427v-193.422h-160.427v17.067zM849.92 512.853v-14.791h-160.427v14.791c0 9.102 6.827 15.929 15.929 15.929h129.707c7.964 0 14.791-6.827 14.791-15.929zM221.867 690.347h515.413c27.307 0 47.787-21.618 47.787-47.787v-79.644h-79.644c-27.307 0-47.787-22.756-47.787-47.787v-112.64h-483.556v238.933c0 27.307 19.342 48.924 47.787 48.924zM221.867 303.502c-27.307 0-47.787 21.618-47.787 47.787v15.929h482.418v-64.853h-434.631v1.138zM833.991 205.653h-129.707c-9.102 0-15.929 6.827-15.929 15.929v14.791h160.427v-14.791c1.138-6.827-5.689-15.929-14.791-15.929z" />
<glyph unicode="&#xe90f;" glyph-name="topic-icon" d="M512 802.987c-195.698 0-354.987-158.151-354.987-354.987s158.151-354.987 354.987-354.987 354.987 159.289 354.987 354.987-159.289 354.987-354.987 354.987zM529.067 328.533l-84.196-84.196-187.733 188.871 84.196 83.058 103.538-103.538 237.796 238.933 84.196-84.196-237.796-238.933z" />
<glyph unicode="&#xe910;" glyph-name="up-arrow-icon" d="M535.893 727.893l263.964-262.827c9.102-9.102 23.893-9.102 34.133 0 10.24 10.24 9.102 23.893 0 34.133l-304.924 303.787c-5.689 4.551-10.24 6.827-17.067 6.827s-11.378-2.276-17.067-6.827l-306.062-304.924c-9.102-9.102-9.102-23.893 0-34.133 10.24-10.24 23.893-9.102 34.133 0l263.964 263.964v-618.951c0-13.653 10.24-23.893 23.893-23.893s23.893 10.24 23.893 23.893v618.951z" />
<glyph unicode="&#xe911;" glyph-name="user-icn" d="M512 806.4c-197.973 0-358.4-160.427-358.4-358.4s160.427-358.4 358.4-358.4 357.262 160.427 357.262 358.4-160.427 358.4-357.262 358.4zM512 772.267c179.769 0 324.267-145.636 324.267-324.267 0-75.093-25.031-143.36-68.267-197.973-35.271 73.956-178.631 105.813-256 105.813-78.507 0-221.867-31.858-256-105.813-43.236 54.613-68.267 122.88-68.267 197.973 0 179.769 144.498 324.267 324.267 324.267zM512 123.733c-91.022 0-170.667 37.547-229.831 95.573 4.551 65.991 153.6 102.4 229.831 102.4s225.28-35.271 229.831-102.4c-59.164-58.027-139.947-95.573-229.831-95.573zM512 385.422c68.267 0 125.156 56.889 125.156 125.156s-56.889 124.018-125.156 124.018-125.156-55.751-125.156-124.018c-1.138-32.996 12.516-62.578 34.133-86.471 23.893-25.031 56.889-38.684 91.022-38.684zM512 600.462c50.062 0 91.022-40.96 91.022-91.022s-40.96-89.884-91.022-89.884c-23.893 0-47.787 10.24-64.853 27.307s-26.169 38.684-26.169 62.578c0 47.787 43.236 91.022 91.022 91.022z" />
<glyph unicode="&#xe912;" glyph-name="warning-icon" d="M512 806.4c-197.973 0-358.4-160.427-358.4-358.4s160.427-358.4 358.4-358.4 357.262 160.427 357.262 358.4-160.427 358.4-357.262 358.4zM533.618 229.547c-5.689-6.827-13.653-10.24-22.756-10.24s-17.067 3.413-22.756 10.24c-6.827 4.551-10.24 13.653-10.24 21.618s3.413 17.067 9.102 21.618c13.653 13.653 34.133 12.516 45.511 0 6.827-4.551 10.24-13.653 10.24-21.618s-2.276-14.791-9.102-21.618zM543.858 383.147c0-19.342-15.929-32.996-32.996-32.996s-32.996 15.929-32.996 32.996v261.689c0 18.204 15.929 31.858 32.996 31.858s32.996-14.791 32.996-31.858v-261.689z" />
<glyph unicode="&#xe913;" glyph-name="workforce-icon" d="M749.796 372.907c46.649 11.378 80.782 52.338 80.782 102.4 0 58.027-47.787 105.813-105.813 105.813-52.338 0-98.987-40.96-103.538-93.298-27.307 25.031-59.164 40.96-92.16 44.373 51.2 9.102 88.747 51.2 88.747 103.538 0 58.027-47.787 105.813-105.813 105.813s-105.813-47.787-105.813-105.813c0-52.338 38.684-97.849 89.884-103.538-29.582-3.413-59.164-17.067-84.196-37.547-9.102 50.062-52.338 86.471-103.538 86.471-58.027 0-105.813-47.787-105.813-105.813 0-50.062 32.996-91.022 78.507-102.4-85.333-13.653-150.187-97.849-150.187-202.524v-17.067h350.436v17.067c0 52.338-17.067 103.538-47.787 141.084h167.253c-28.444-37.547-45.511-86.471-45.511-141.084v-17.067h341.333v17.067c-2.276 105.813-62.578 187.733-146.773 202.524zM234.382 475.307c0 39.822 32.996 71.68 71.68 71.68s71.68-31.858 71.68-71.68c0-6.827-1.138-13.653-3.413-18.204-3.413-12.516-10.24-21.618-18.204-30.72-13.653-13.653-32.996-22.756-51.2-22.756-37.547 0-70.542 32.996-70.542 71.68zM724.764 403.627c-39.822 0-71.68 32.996-71.68 71.68 0 39.822 31.858 71.68 71.68 71.68s71.68-32.996 71.68-71.68c0-38.684-31.858-71.68-71.68-71.68zM864.711 187.449h-279.893c3.413 51.2 25.031 96.711 59.164 126.293 11.378 10.24 23.893 17.067 37.547 22.756s27.307 6.827 40.96 6.827c76.231-1.138 135.396-67.129 142.222-155.876zM307.2 342.187c10.24 0 21.618-1.138 34.133-4.551 17.067-4.551 32.996-13.653 45.511-23.893 34.133-28.444 56.889-75.093 59.164-126.293h-279.893c7.964 88.747 67.129 154.738 141.084 154.738zM509.724 499.2c67.129 0 126.293-63.716 137.671-145.636-5.689-3.413-11.378-6.827-17.067-10.24h-234.382c-6.827 5.689-14.791 10.24-23.893 13.653 1.138 14.791 6.827 31.858 13.653 47.787 4.551 13.653 13.653 25.031 20.48 37.547 28.444 36.409 65.991 56.889 103.538 56.889zM682.667 369.493c0 3.413-1.138 6.827-1.138 10.24 4.551-3.413 12.516-4.551 17.067-6.827-6.827 0-11.378-1.138-15.929-3.413zM342.471 376.32c0-1.138 0-3.413-1.138-4.551-3.413 0-6.827 1.138-9.102 1.138 3.413 0 6.827 2.276 10.24 3.413zM438.044 638.009c0 38.684 32.996 71.68 71.68 71.68s71.68-32.996 71.68-71.68c0-39.822-32.996-71.68-71.68-71.68-39.822-2.276-71.68 30.72-71.68 71.68z" />
</font>
</defs>
</svg>
