<?xml version="1.0" encoding="utf-8"?>
<!-- Generator: Adobe Illustrator 19.2.1, SVG Export Plug-In . SVG Version: 6.00 Build 0)  -->
<svg version="1.1" id="Layer_1" xmlns="http://www.w3.org/2000/svg" xmlns:xlink="http://www.w3.org/1999/xlink" x="0px" y="0px"
	 viewBox="0 0 323 35" style="enable-background:new 0 0 323 35;" xml:space="preserve">
<style type="text/css">
	.st0{fill:#769ABD;}
	.st1{fill:#FFFFFF;}
</style>
<g>
	<g>
		<path class="st0" d="M67.1,30.7l-0.3,0c-0.4,0-0.7-0.2-0.9-0.6l-2.4-6.3H51.3l-2.4,6.3c-0.2,0.4-0.4,0.6-0.9,0.6l-0.3,0
			c-0.2-0.1-0.4-0.3-0.5-0.5c-0.1-0.2-0.1-0.5,0-0.7l9.3-24.9c0.2-0.4,0.5-0.6,1-0.6c0.5,0,0.8,0.2,0.9,0.6l9.3,24.9
			c0.1,0.2,0.1,0.5,0,0.7C67.5,30.4,67.4,30.6,67.1,30.7z M57.4,7.4L52,21.9h10.9L57.4,7.4z"/>
		<path class="st0" d="M48,31.6l-0.7-0.1c-0.4-0.2-0.8-0.5-1-1c-0.2-0.5-0.2-1,0-1.5l9.3-24.9C56,3.4,56.6,3,57.4,3
			c0.9,0,1.5,0.4,1.7,1.2l9.3,24.9c0.2,0.4,0.2,0.9,0,1.4c-0.2,0.5-0.5,0.8-1,1l-0.3,0.1l-0.3,0c-0.9,0-1.5-0.4-1.8-1.2l-2.2-5.7
			h-11l-2.2,5.8C49.4,31.2,48.8,31.6,48,31.6z M48,29.8l0.1,0l2.5-7h13.5l2,5.4l-2-5.5H50.6l6.8-17.9l6.7,17.9L57.4,4.8l-0.1,0
			L48,29.8z M53.3,20.9h8.2l-4.1-11L53.3,20.9z"/>
	</g>
	<g>
		<path class="st0" d="M74.7,10.4c0.1,2.6,2.6,4.3,7.8,5.3h0.1c2.9,0.5,5.2,1.4,6.8,2.5c2,1.3,3,3,3,5.1s-1,3.9-3,5.3
			c-2,1.4-4.3,2.2-7,2.2c-3.4,0-6.7-1.3-9.9-3.9c-0.4-0.4-0.4-0.8-0.1-1.2c0.2-0.2,0.3-0.3,0.6-0.3c0.2,0,0.4,0,0.6,0.2
			c2.9,2.3,5.8,3.5,8.8,3.5c2.4,0,4.3-0.6,5.9-1.8c1.5-1.1,2.3-2.4,2.3-4c0-2.9-2.8-4.8-8.4-5.9h-0.1c-6.1-1.1-9.1-3.4-9.1-7
			c0-2,0.9-3.7,2.7-5c1.8-1.3,4-2,6.6-2c1.1,0,2.2,0.2,3.3,0.6s2,0.7,2.6,1.1c0.6,0.3,1.4,0.8,2.4,1.5c0.5,0.3,0.5,0.7,0.2,1.2
			c-0.3,0.5-0.7,0.5-1.2,0.2c-0.9-0.6-1.7-1.1-2.2-1.4c-0.6-0.3-1.3-0.7-2.3-1c-1-0.3-1.9-0.5-2.8-0.5c-2.2,0-4,0.5-5.5,1.6
			C75.4,7.8,74.7,9,74.7,10.4z"/>
		<path class="st0" d="M82.4,31.6c-3.6,0-7.1-1.4-10.5-4.1c-0.8-0.7-0.9-1.6-0.3-2.5c0.3-0.4,0.7-0.6,1.2-0.7
			c0.5-0.1,0.9,0.1,1.3,0.4c2.7,2.2,5.5,3.3,8.2,3.2c2.2,0,4-0.5,5.4-1.6c1.3-0.9,1.9-2,1.9-3.3c0-2.3-2.6-4-7.6-5l-0.2,0
			c-6.5-1.2-9.9-3.9-9.9-7.9c0-2.3,1.1-4.2,3.1-5.7c2-1.4,4.4-2.2,7.1-2.2c1.2,0,2.4,0.2,3.6,0.6c1.2,0.4,2.1,0.8,2.8,1.1
			c0.6,0.4,1.4,0.8,2.4,1.5c0.9,0.6,1.1,1.5,0.5,2.4c-0.3,0.5-0.7,0.7-1,0.8c-0.4,0.1-0.9,0-1.4-0.3c-0.9-0.6-1.7-1-2.2-1.4
			c-0.5-0.3-1.2-0.6-2.1-0.9C84,6.2,83.2,6,82.4,6c-1.9,0-3.6,0.5-5,1.4c-1.2,0.9-1.7,1.8-1.7,2.9c0,2,2.4,3.5,6.9,4.4l0.2,0
			c3.1,0.6,5.5,1.4,7.2,2.6c2.2,1.4,3.4,3.4,3.4,5.8c0,2.4-1.1,4.5-3.4,6.1C87.8,30.9,85.3,31.6,82.4,31.6z"/>
	</g>
	<g>
		<path class="st0" d="M115.7,29.8V18.2h-13.8v11.6c0,0.3-0.1,0.5-0.3,0.7s-0.4,0.3-0.7,0.3c-0.3,0-0.5-0.1-0.7-0.3
			c-0.2-0.2-0.3-0.4-0.3-0.7V4.7c0-0.3,0.1-0.5,0.3-0.7c0.2-0.2,0.4-0.3,0.7-0.3c0.3,0,0.5,0.1,0.7,0.3s0.3,0.4,0.3,0.7v11.6h13.8
			V4.7c0-0.3,0.1-0.5,0.3-0.7c0.2-0.2,0.4-0.3,0.7-0.3c0.3,0,0.5,0.1,0.7,0.3c0.2,0.2,0.3,0.4,0.3,0.7v25.1c0,0.3-0.1,0.5-0.3,0.7
			c-0.2,0.2-0.4,0.3-0.7,0.3c-0.3,0-0.5-0.1-0.7-0.3C115.8,30.2,115.7,30,115.7,29.8z"/>
		<path class="st0" d="M116.7,31.6c-0.5,0-0.9-0.2-1.3-0.5c-0.3-0.3-0.5-0.8-0.5-1.3V19.1h-12v10.7c0,0.5-0.2,1-0.6,1.3
			c-0.7,0.7-1.9,0.7-2.6,0c-0.3-0.3-0.5-0.8-0.5-1.3V4.7c0-0.5,0.2-0.9,0.5-1.3c0.7-0.7,1.9-0.7,2.6,0c0.4,0.4,0.6,0.8,0.6,1.3v10.7
			h12V4.7c0-0.5,0.2-0.9,0.5-1.3c0.7-0.7,1.9-0.7,2.6,0c0.4,0.4,0.6,0.8,0.6,1.3v25.1c0,0.5-0.2,1-0.6,1.3
			C117.6,31.4,117.2,31.6,116.7,31.6z M101,17.3h15.7l0,12.5l0.1-25.1l-0.1,12.5L101,17.3V4.7l-0.1,25.1L101,17.3z"/>
	</g>
	<g>
		<path class="st0" d="M127.3,29.8V4.7c0-0.3,0.1-0.5,0.3-0.7c0.2-0.2,0.4-0.3,0.7-0.3h6c1.8,0,3.4,0.7,4.7,2c1.3,1.3,2,3,2,4.9
			c0,2-0.9,3.7-2.6,5.1c1.5,0.5,2.8,1.5,3.8,2.8c1,1.3,1.5,2.8,1.5,4.5c0,2.1-0.7,3.9-2.2,5.4c-1.5,1.5-3.3,2.2-5.4,2.2h-7.7
			c-0.3,0-0.5-0.1-0.6-0.3C127.4,30.2,127.3,30,127.3,29.8z M129.2,15.3h5c1.3,0,2.5-0.5,3.4-1.4c0.9-0.9,1.4-2.1,1.4-3.4
			s-0.5-2.5-1.4-3.4c-0.9-0.9-2.1-1.4-3.4-1.4h-5V15.3z M129.2,28.8h6.7c1.6,0,2.9-0.6,4.1-1.7s1.7-2.5,1.7-4.1c0-1.6-0.6-3-1.7-4.1
			c-1.1-1.1-2.5-1.7-4.1-1.7h-6.7V28.8z"/>
		<path class="st0" d="M135.9,31.6h-7.7c-0.5,0-1-0.2-1.3-0.6c-0.3-0.3-0.5-0.8-0.5-1.3V4.7c0-0.5,0.2-0.9,0.5-1.3
			c0.3-0.4,0.8-0.5,1.3-0.5h6c2.1,0,3.9,0.7,5.4,2.2c1.5,1.5,2.2,3.4,2.2,5.6c0,1.8-0.6,3.4-1.9,4.8c1.1,0.6,2.1,1.5,2.9,2.5
			c1.1,1.5,1.7,3.2,1.7,5c0,2.4-0.8,4.4-2.5,6.1C140.3,30.8,138.3,31.6,135.9,31.6z M128.2,4.7l0,25.1c0,0,0,0,0,0l7.7,0
			c1.9,0,3.5-0.6,4.8-2c1.3-1.3,2-2.9,2-4.8c0-1.5-0.4-2.8-1.3-3.9c-0.9-1.2-2-2-3.4-2.5l-1.5-0.5l1.3-1c1.5-1.2,2.2-2.6,2.2-4.3
			c0-1.8-0.6-3.2-1.7-4.3c-1.1-1.1-2.5-1.7-4.1-1.7H128.2z M135.9,29.7h-7.6V16.3h7.6c1.8,0,3.4,0.7,4.7,2c1.3,1.3,2,2.9,2,4.7
			c0,1.9-0.7,3.5-2,4.8C139.3,29.1,137.7,29.7,135.9,29.7z M130.1,27.9h5.8c1.3,0,2.5-0.5,3.4-1.4c1-1,1.4-2.1,1.5-3.5
			c0-1.3-0.5-2.5-1.5-3.4c-1-1-2.1-1.4-3.4-1.4h-5.8V27.9z M134.2,16.2h-5.9V4.8h5.9c1.6,0,2.9,0.6,4.1,1.7c1.1,1.1,1.7,2.5,1.7,4
			c0,1.6-0.6,2.9-1.7,4C137.1,15.6,135.8,16.2,134.2,16.2z M130.1,14.4h4.1c1.1,0,2-0.4,2.8-1.1c0.8-0.8,1.1-1.7,1.1-2.7
			c0-1.1-0.4-2-1.1-2.8c-0.8-0.8-1.7-1.2-2.8-1.2h-4.1V14.4z"/>
	</g>
	<g>
		<path class="st0" d="M148.9,17.1c0-3.8,1.3-7,3.8-9.7c2.5-2.7,5.6-4,9.2-4c3.6,0,6.6,1.3,9.1,4c2.5,2.7,3.7,5.9,3.8,9.7
			c0,3.8-1.3,7-3.8,9.7c-2.5,2.7-5.5,4-9.1,4c-3.6,0-6.7-1.3-9.2-4S148.9,20.8,148.9,17.1z M161.8,5.3c-3,0-5.6,1.1-7.8,3.4
			c-2.2,2.3-3.2,5-3.2,8.3s1.1,6.1,3.2,8.4c2.2,2.3,4.8,3.4,7.8,3.4c3,0,5.6-1.1,7.8-3.4s3.2-5.1,3.3-8.3c0-3.3-1.1-6.1-3.2-8.3
			C167.5,6.5,164.9,5.3,161.8,5.3z"/>
		<path class="st0" d="M161.9,31.6c-3.8,0-7.1-1.4-9.8-4.3c-2.7-2.8-4-6.3-4.1-10.3v0c0-4,1.4-7.5,4.1-10.3c2.7-2.8,6-4.3,9.8-4.3
			c3.8,0,7.1,1.4,9.8,4.3c2.6,2.8,4,6.3,4,10.3c0,4-1.4,7.5-4,10.3C169,30.2,165.7,31.6,161.9,31.6z M149.8,17.1
			c0,3.6,1.2,6.5,3.6,9c2.4,2.5,5.1,3.7,8.5,3.7c3.4,0,6.1-1.2,8.5-3.7c2.3-2.5,3.5-5.5,3.5-9c0-3.5-1.2-6.6-3.5-9
			c-2.3-2.5-5.1-3.7-8.5-3.7c-3.4,0-6.2,1.2-8.5,3.7C151,10.5,149.8,13.5,149.8,17.1z M161.8,29.7c-3.3,0-6.1-1.2-8.4-3.7
			c-2.3-2.4-3.5-5.5-3.5-9c0-3.5,1.2-6.5,3.5-9c2.3-2.4,5.2-3.7,8.5-3.7c3.3,0,6.1,1.2,8.4,3.7c2.3,2.4,3.5,5.4,3.5,9
			c0,3.5-1.2,6.5-3.5,9C167.9,28.5,165.1,29.7,161.8,29.7z M161.8,6.2c-2.8,0-5.1,1-7.1,3.1c-2,2.1-3,4.6-3,7.7c0,3.1,1,5.6,3,7.7
			c2,2.1,4.3,3.1,7.1,3.1c2.8,0,5.1-1,7.1-3.2c2-2.1,3-4.7,3-7.7c0-3.1-1-5.6-3-7.7C167,7.3,164.6,6.2,161.8,6.2z"/>
	</g>
	<g>
		<path class="st0" d="M198.8,30.7l-0.3,0c-0.4,0-0.7-0.2-0.9-0.6l-2.4-6.3h-12.3l-2.4,6.3c-0.2,0.4-0.4,0.6-0.9,0.6l-0.3,0
			c-0.2-0.1-0.4-0.3-0.5-0.5c-0.1-0.2-0.1-0.5,0-0.7l9.3-24.9c0.2-0.4,0.5-0.6,1-0.6c0.5,0,0.8,0.2,0.9,0.6l9.3,24.9
			c0.1,0.2,0.1,0.5,0,0.7C199.2,30.4,199,30.6,198.8,30.7z M189.1,7.4l-5.5,14.4h10.9L189.1,7.4z"/>
		<path class="st0" d="M179.7,31.6l-0.7-0.1c-0.4-0.2-0.8-0.5-1-1c-0.2-0.5-0.2-1,0-1.5l9.3-24.9c0.4-0.8,1-1.2,1.8-1.2
			c0.9,0,1.5,0.4,1.7,1.2l9.3,24.9c0.2,0.4,0.2,0.9,0,1.4c-0.2,0.5-0.5,0.8-1,1l-0.3,0.1l-0.3,0c-0.9,0-1.5-0.4-1.8-1.2l-2.2-5.7
			h-11l-2.2,5.8C181.1,31.2,180.5,31.6,179.7,31.6z M179.6,29.8l0.1,0l2.5-7h13.5l2,5.4l-2-5.5h-13.5l6.8-17.9l6.7,17.9l-6.7-17.9
			l-0.1,0L179.6,29.8z M184.9,20.9h8.2l-4.1-11L184.9,20.9z"/>
	</g>
	<g>
		<path class="st0" d="M222.7,30.3c-1.6,0-2.5-1.9-2.5-5.6c0-1.6-0.7-3-2.2-4.1c-1.1-0.7-2.1-1.2-3.2-1.4c0,0-0.1,0-0.1,0h-6.5v10.6
			c0,0.3-0.1,0.5-0.3,0.7c-0.2,0.2-0.4,0.3-0.7,0.3c-0.3,0-0.5-0.1-0.7-0.3s-0.3-0.4-0.3-0.7V4.7c0-0.2,0.1-0.4,0.3-0.6
			c0.2-0.2,0.4-0.3,0.6-0.3h7.7c2.1,0,3.9,0.7,5.4,2.2c1.5,1.5,2.2,3.3,2.2,5.4c0,1.5-0.4,2.9-1.2,4.2c-0.8,1.3-1.9,2.2-3.2,2.8
			l0.4,0.2c1,0.6,1.9,1.4,2.6,2.4c0.7,1,1,2.4,1,4.1c0,1.7,0.2,2.8,0.7,3.3c0.5-0.1,0.9,0.2,1,0.6c0.1,0.6-0.1,1-0.6,1.2h-0.1
			L222.7,30.3L222.7,30.3z M219,15.5c1.1-1.1,1.7-2.5,1.7-4.1s-0.6-2.9-1.7-4.1c-1.1-1.1-2.5-1.7-4.1-1.7h-6.6v11.6h6.8
			C216.5,17.2,217.9,16.6,219,15.5z"/>
		<path class="st0" d="M207.2,31.6c-0.5,0-0.9-0.2-1.3-0.5s-0.5-0.8-0.5-1.3V4.7c0-0.5,0.2-0.9,0.5-1.2c0.3-0.3,0.7-0.5,1.2-0.6
			l7.8,0c2.4,0,4.4,0.8,6.1,2.5c1.7,1.7,2.5,3.7,2.5,6.1c0,1.7-0.5,3.2-1.4,4.6c-0.6,0.9-1.3,1.7-2.2,2.3c0.8,0.6,1.4,1.2,1.9,2
			c0.8,1.1,1.2,2.7,1.2,4.6c0,1.4,0.2,2.1,0.3,2.4c0.7,0.1,1.2,0.5,1.4,1.2c0.2,1.2-0.2,2-1.2,2.4l-0.3,0.1l-0.5,0
			c-2.2,0-3.4-2.2-3.4-6.6c0-1.3-0.6-2.4-1.8-3.3c-0.9-0.6-1.9-1.1-2.8-1.2l-0.2,0h-5.4v9.7c0,0.5-0.2,1-0.6,1.3
			C208.1,31.4,207.7,31.6,207.2,31.6z M207.1,4.7l0.1,25.1l0.1-11.6h7.8l0.1,0.1c0.5,0.1,1,0.3,1.5,0.5l-0.7-0.4l1.7-0.8
			c1.2-0.5,2.1-1.4,2.8-2.5c0.7-1.1,1.1-2.3,1.1-3.7c0-1.9-0.6-3.5-2-4.8c-1.3-1.3-2.9-2-4.8-2H207.1z M222.5,29.3
			c0.1,0,0.1,0,0.2,0l0.3,0c0,0,0,0,0,0c0,0,0,0-0.1,0L222.5,29.3z M221.2,26.7c0.2,1.2,0.5,2.4,1.2,2.6l-0.3-0.3
			C221.7,28.6,221.4,27.8,221.2,26.7z M221.1,24.2c0,0.1,0,0.3,0,0.4c0,0.5,0,1.1,0.1,1.7c0-0.4,0-0.8,0-1.2
			C221.1,24.8,221.1,24.5,221.1,24.2z M217.8,19.3c0.2,0.1,0.5,0.3,0.7,0.5c1.4,1,2.2,2.2,2.5,3.6c-0.1-0.8-0.4-1.4-0.7-1.9
			c-0.6-0.9-1.4-1.6-2.3-2.1L217.8,19.3z M208.2,18.2h-0.9V4.8h7.6c1.8,0,3.4,0.7,4.7,2c1.3,1.3,2,2.9,2,4.7c0,1.8-0.6,3.4-1.9,4.7
			c-1.3,1.3-2.8,2-4.6,2H208.2z M209.1,16.4h5.9c1.3,0,2.4-0.5,3.3-1.5c0.9-1,1.4-2.1,1.4-3.4c0-1.3-0.5-2.5-1.4-3.4
			c-1-1-2.1-1.4-3.5-1.4h-5.7V16.4z"/>
	</g>
	<g>
		<path class="st0" d="M237.6,30.7h-5.1c-0.2,0-0.4-0.1-0.6-0.3c-0.2-0.2-0.3-0.4-0.3-0.6V4.7c0-0.3,0.1-0.5,0.3-0.7
			c0.2-0.2,0.4-0.3,0.7-0.3h5c3.7,0,6.9,1.3,9.5,4c2.6,2.6,3.9,5.8,3.9,9.5s-1.3,6.9-3.9,9.5C244.5,29.4,241.3,30.7,237.6,30.7z
			 M233.5,28.8h4.1c3.2,0,5.9-1.1,8.2-3.4c2.3-2.3,3.4-5,3.4-8.2s-1.1-5.9-3.4-8.2c-2.3-2.3-5-3.4-8.2-3.4h-4.1V28.8z"/>
		<path class="st0" d="M237.6,31.6h-5.1c-0.5-0.1-0.9-0.2-1.2-0.6c-0.3-0.3-0.5-0.8-0.5-1.3V4.7c0-0.5,0.2-0.9,0.5-1.3
			c0.3-0.4,0.8-0.5,1.3-0.5h5c3.9,0,7.4,1.4,10.2,4.2c2.8,2.8,4.2,6.2,4.2,10.2c0,3.9-1.4,7.4-4.2,10.1
			C244.9,30.2,241.5,31.6,237.6,31.6z M232.5,4.7l0,25.1l5,0c3.5,0,6.4-1.2,8.9-3.7c2.5-2.5,3.7-5.4,3.7-8.8c0-3.5-1.2-6.4-3.7-8.9
			c-2.5-2.5-5.4-3.7-8.9-3.7H232.5z M237.6,29.7h-5v-25h5c3.4,0,6.4,1.3,8.8,3.7c2.4,2.4,3.6,5.4,3.6,8.8c0,3.4-1.2,6.4-3.6,8.8
			C244,28.5,241,29.7,237.6,29.7z M234.4,27.9h3.2c3,0,5.4-1,7.5-3.1c2.1-2.1,3.1-4.6,3.1-7.5c0-3-1-5.4-3.1-7.5
			c-2.1-2.1-4.6-3.1-7.5-3.2h-3.2V27.9z"/>
	</g>
	<g>
		<path class="st0" d="M258.8,10.4c0.1,2.6,2.6,4.3,7.8,5.3h0.1c2.9,0.5,5.2,1.4,6.8,2.5c2,1.3,3,3,3,5.1s-1,3.9-3,5.3
			c-2,1.4-4.3,2.2-7,2.2c-3.4,0-6.7-1.3-9.9-3.9c-0.4-0.4-0.4-0.8-0.1-1.2c0.2-0.2,0.3-0.3,0.6-0.3c0.2,0,0.4,0,0.6,0.2
			c2.9,2.3,5.8,3.5,8.8,3.5c2.4,0,4.3-0.6,5.9-1.8c1.5-1.1,2.3-2.4,2.3-4c0-2.9-2.8-4.8-8.4-5.9h-0.1c-6.1-1.1-9.1-3.4-9.1-7
			c0-2,0.9-3.7,2.7-5c1.8-1.3,4-2,6.6-2c1.1,0,2.2,0.2,3.3,0.6c1.1,0.4,2,0.7,2.6,1.1c0.6,0.3,1.4,0.8,2.4,1.5
			c0.5,0.3,0.5,0.7,0.2,1.2c-0.3,0.5-0.7,0.5-1.2,0.2c-0.9-0.6-1.7-1.1-2.2-1.4c-0.6-0.3-1.3-0.7-2.3-1c-1-0.3-1.9-0.5-2.8-0.5
			c-2.2,0-4,0.5-5.5,1.6C259.5,7.8,258.8,9,258.8,10.4z"/>
		<path class="st0" d="M266.5,31.6c-3.6,0-7.1-1.4-10.5-4.1c-0.8-0.7-0.9-1.6-0.3-2.5c0.3-0.4,0.7-0.6,1.2-0.7
			c0.5-0.1,0.9,0.1,1.3,0.4c2.7,2.2,5.5,3.3,8.2,3.2c2.2,0,4-0.5,5.4-1.6c1.3-0.9,1.9-2,1.9-3.3c0-2.3-2.6-4-7.6-5l-0.2,0
			c-6.5-1.2-9.9-3.9-9.9-7.9c0-2.3,1.1-4.2,3.1-5.7c2-1.4,4.4-2.2,7.1-2.2c1.2,0,2.4,0.2,3.6,0.6c1.2,0.4,2.1,0.8,2.8,1.1
			c0.6,0.4,1.4,0.8,2.4,1.5c0.9,0.6,1.1,1.5,0.5,2.4c-0.3,0.5-0.7,0.7-1,0.8c-0.4,0.1-0.9,0-1.4-0.3c-0.9-0.6-1.7-1-2.2-1.4
			c-0.5-0.3-1.2-0.6-2.1-0.9c-0.9-0.3-1.7-0.4-2.5-0.4c-1.9,0-3.6,0.5-5,1.4c-1.2,0.9-1.7,1.8-1.7,2.9c0,2,2.4,3.5,6.9,4.4l0.2,0
			c3.1,0.6,5.5,1.4,7.2,2.6c2.2,1.4,3.4,3.4,3.4,5.8c0,2.4-1.1,4.5-3.4,6.1C271.9,30.9,269.4,31.6,266.5,31.6z"/>
	</g>
</g>
<circle class="st1" cx="5.8" cy="4.1" r="2"/>
<circle class="st1" cx="9.5" cy="10.2" r="2"/>
<circle class="st1" cx="13.2" cy="16.3" r="2"/>
<circle class="st1" cx="16.9" cy="22.4" r="2"/>
<path class="st1" d="M38.8,6.1C36.2,3.6,32.7,2,28.8,2h-23v4.1h10.1H38.8z"/>
<polygon class="st1" points="14.1,8.1 9.5,8.1 9.5,12.2 12.2,12.2 25.4,12.2 25.4,8.1 "/>
<path class="st1" d="M37.8,12.2h4.6c-0.4-1.5-1.1-2.9-2-4.1h-6.2C35.8,9.1,37.1,10.5,37.8,12.2z"/>
<rect x="13.2" y="14.3" class="st1" width="12.1" height="4.1"/>
<path class="st1" d="M38.5,18.3h4.4c0.1-0.7,0.2-1.3,0.2-2c0-0.7-0.1-1.4-0.2-2h-4.4c0.1,0.7,0.2,1.3,0.2,2
	C38.8,17,38.7,17.7,38.5,18.3z"/>
<path class="st1" d="M34.2,24.5h6.2c0.9-1.2,1.5-2.6,2-4.1h-4.6C37.1,22.1,35.8,23.5,34.2,24.5z"/>
<rect x="16.9" y="20.4" class="st1" width="8.4" height="4.1"/>
<path class="st1" d="M22.7,28.6c0,1.1-0.9,2-2,2h8.1c3.9,0,7.4-1.6,10-4.1H20.7C21.8,26.5,22.7,27.4,22.7,28.6z"/>
<path class="st1" d="M20.7,26.5c-1.1,0-2,0.9-2,2s0.9,2,2,2v-1V26.5z"/>
<path class="st1" d="M22.7,28.6c0-1.1-0.9-2-2-2v3.1v1C21.8,30.6,22.7,29.7,22.7,28.6z"/>
</svg>
