<?xml version="1.0" encoding="utf-8"?>
<!-- Generator: Adobe Illustrator 19.2.1, SVG Export Plug-In . SVG Version: 6.00 Build 0)  -->
<svg version="1.1" id="Layer_1" xmlns="http://www.w3.org/2000/svg" xmlns:xlink="http://www.w3.org/1999/xlink" x="0px" y="0px"
	 viewBox="0 0 178 178" style="enable-background:new 0 0 178 178;" xml:space="preserve">
<style type="text/css">
	.st0{fill:#FFFFFF;}
	.st1{fill-rule:evenodd;clip-rule:evenodd;fill:#FFFFFF;}
</style>
<path class="st0" d="M88.3,176.5C39.6,176.5,0,136.9,0,88.3C0,39.6,39.6,0,88.3,0c48.7,0,88.3,39.6,88.3,88.3
	C176.5,136.9,136.9,176.5,88.3,176.5z M88.3,0.8C40,0.8,0.8,40,0.8,88.3s39.2,87.5,87.5,87.5s87.5-39.2,87.5-87.5
	S136.5,0.8,88.3,0.8z"/>
<polygon class="st1" points="46.5,115.5 47.1,113.3 45.1,112 47.5,111.9 48,109.6 48.9,111.8 51.3,111.6 49.5,113.1 50.3,115.3 
	48.4,114.1 46.5,115.5 "/>
<polygon class="st1" points="53.7,109.8 54.2,107.5 52.3,106.3 54.6,106.2 55.2,103.8 56,106 58.4,105.9 56.6,107.4 57.5,109.6 
	55.4,108.3 53.7,109.8 "/>
<polygon class="st1" points="60.9,104.9 61.4,102.6 59.4,101.4 61.8,101.2 62.4,99 63.2,101.1 65.6,101 63.8,102.5 64.7,104.7 
	62.7,103.4 60.9,104.9 "/>
<polygon class="st1" points="67.7,100 68.3,97.8 66.3,96.5 68.7,96.3 69.2,94.1 70.1,96.2 72.4,96.1 70.6,97.6 71.5,99.8 69.5,98.5 
	67.7,100 "/>
<polygon class="st1" points="74.2,95.1 74.8,92.9 72.8,91.6 75.1,91.5 75.7,89.2 76.6,91.4 78.9,91.2 77.1,92.7 78,94.9 76,93.6 
	74.2,95.1 "/>
<polygon class="st1" points="80.7,90.3 81.3,88 79.3,86.8 81.7,86.6 82.2,84.4 83.1,86.5 85.5,86.3 83.6,87.9 84.5,90 82.6,88.8 
	80.7,90.3 "/>
<polygon class="st1" points="86.9,85.8 87.5,83.5 85.5,82.3 87.9,82.1 88.4,79.9 89.3,82 91.7,81.9 89.8,83.4 90.7,85.5 88.7,84.3 
	86.9,85.8 "/>
<polygon class="st1" points="93.4,90.5 94,88.2 92,86.9 94.3,86.8 94.9,84.5 95.7,86.7 98.1,86.6 96.3,88 97.2,90.2 95.2,89 
	93.4,90.5 "/>
<polygon class="st1" points="100.2,95.2 100.7,92.9 98.7,91.7 101.1,91.5 101.7,89.2 102.5,91.4 104.9,91.2 103.1,92.8 104,94.9 
	102,93.7 100.2,95.2 "/>
<polygon class="st1" points="106.7,100.9 107.2,98.6 105.3,97.4 107.6,97.2 108.2,95 109.1,97.1 111.4,97 109.6,98.5 110.5,100.7 
	108.5,99.4 106.7,100.9 "/>
<polygon class="st1" points="113.5,105.5 114.1,103.3 112.1,102 114.4,101.9 115,99.6 115.9,101.8 118.2,101.7 116.4,103.1 
	117.2,105.3 115.3,104.1 113.5,105.5 "/>
<polygon class="st1" points="120.3,110.3 120.9,108 118.8,106.7 121.2,106.6 121.8,104.3 122.6,106.5 125,106.3 123.2,107.8 
	124,110 122.1,108.7 120.3,110.3 "/>
<polygon class="st1" points="127.5,116.3 128.1,114 126.1,112.7 128.4,112.6 129,110.3 129.9,112.5 132.2,112.4 130.4,113.8 
	131.2,116 129.3,114.8 127.5,116.3 "/>
<path class="st1" d="M88.5,94.2l-40.8,28.9c10.2,15,21.2,15.4,21.2,15.4c16.7,5.8,19.8,11.4,19.8,11.4s5-7.2,20.8-10.9
	c0,0,10.9-0.4,20.5-15.3L88.5,94.2z M111.9,133.4c-4,0-5.4-3.3-5.7-7.6c0,0-1.5-0.2-1.9,1.3c0,0-0.4-1.3-1.5-1.3l-28.2,0
	c-0.5,0.5-1.3,0.9-2.1,0.9c-0.8,0-1.5-0.3-2.1-0.9l-0.1,0v6.3l-5.1-0.1V127h2l0.1,1.2h1l0.1-2.4h-7.2v2.4h1.2V127h2v5.1h-5.1v-6.4
	H57c0,0-2.8-1.8,0-4.1l13.2,0c0.6-0.7,1.4-1.1,2.3-1.1c0.9,0,1.7,0.4,2.3,1.1l27.6,0c1.5,0.1,1.8-1,1.8-1c0.3,1.3,1.9,1,1.9,1
	l0.1,0.1c0.2-4.4,1.3-7.6,5.7-7.6c4.6,0,5.5,4,5.5,9.3C117.5,128.7,116.7,133.4,111.9,133.4z"/>
<path class="st0" d="M59.8,131.8c-0.1,0-0.2-0.1-0.2-0.2v-5.7c0-0.1,0.1-0.2,0.2-0.2s0.2,0.1,0.2,0.2v5.7
	C60,131.7,59.9,131.8,59.8,131.8z M69.7,129.9h-1.1c-0.1,0-0.2-0.1-0.2-0.2s0.1-0.2,0.2-0.2h0.7v-2.9c0-0.1,0.1-0.2,0.2-0.2
	s0.2,0.1,0.2,0.2V129.9z M63.3,129.9H62c-0.1,0-0.2-0.1-0.2-0.2s0.1-0.2,0.2-0.2h0.9V129c0-0.1,0.1-0.2,0.2-0.2s0.2,0.1,0.2,0.2
	V129.9z M69,122.5H57.2c-0.1,0-0.2-0.1-0.2-0.2s0.1-0.2,0.2-0.2H69c0.1,0,0.2,0.1,0.2,0.2S69.1,122.5,69,122.5z"/>
<path class="st1" d="M70.5,123c0.3-1.3,1.6-1.8,1.6-1.8C70.1,121,70.5,123,70.5,123L70.5,123z"/>
<path class="st0" d="M110,132.4C110,132.4,109.9,132.4,110,132.4c-0.2-0.1-2-1.2-2.7-3.8c-0.6-2.2-0.8-4.5-0.6-7.2
	c0.2-3.2,1.1-5.3,2.7-6.4c0.1-0.1,0.2,0,0.3,0.1c0.1,0.1,0,0.2-0.1,0.3c-1.5,1-2.3,3-2.5,6.1c-0.2,2.7,0,4.9,0.5,7.1
	c0.6,2.4,2.4,3.5,2.4,3.5c0.1,0.1,0.1,0.2,0.1,0.3C110.1,132.4,110.1,132.4,110,132.4z M101.3,122.6H75.9c-0.1,0-0.2-0.1-0.2-0.2
	s0.1-0.2,0.2-0.2h25.4c0.1,0,0.2,0.1,0.2,0.2S101.4,122.6,101.3,122.6z M103.6,122.2C103.6,122.2,103.6,122.2,103.6,122.2l-0.3,0
	l0.1-0.2c0,0,0.3-0.6,0.8-0.7l0.3-0.1l-0.1,0.3C104.5,121.4,104.2,122.2,103.6,122.2z"/>
<path class="st0" d="M115.8,130l-0.4-0.1c0,0,1-2.8,0-4.7l0.3-0.2C116.8,127,115.8,129.9,115.8,130z M115.5,122.5l-0.4-0.2
	c0,0,1.1-2.5,0.3-4.1l0.4-0.2C116.7,119.9,115.6,122.4,115.5,122.5z"/>
<path class="st0" d="M59.7,59.3c-0.1,0-0.2-0.1-0.2-0.2c0-0.1,0.1-0.2,0.2-0.2c2.5-0.3,3.5-2.6,3.5-2.6l0-0.1l0.1,0L83,51.7l0.7,0.9
	c0.1,0.1,0.1,0.2,0,0.3c-0.1,0.1-0.2,0.1-0.3,0l-0.6-0.7l-19.4,4.5C63.3,57,62.2,59,59.7,59.3C59.7,59.3,59.7,59.3,59.7,59.3z"/>
<polygon class="st1" points="53.7,56.2 54.3,57.9 54.2,56 53.7,56.2 "/>
<path class="st1" d="M116.7,58.6c2.9,0.7,4.6-2.5,4.6-2.5l1.4,0.3C120.6,60.3,116.7,58.6,116.7,58.6L116.7,58.6z"/>
<path class="st0" d="M88.1,66.8C88.1,66.8,88.1,66.8,88.1,66.8c-0.6-0.1-1.7-0.7-1.7-1.9l0.2-6.6c0-0.1,0.1-0.2,0.2-0.2
	c0.1,0,0.2,0.1,0.2,0.2l-0.2,6.6c0,1.2,1.3,1.5,1.3,1.5c0.1,0,0.2,0.1,0.1,0.2C88.3,66.8,88.2,66.8,88.1,66.8z M90.8,55.1
	c0,0-0.1,0-0.1,0c-0.1-0.1-0.1-0.2,0-0.3l2.3-2.7l2,0.3c0.1,0,0.2,0.1,0.2,0.2s-0.1,0.2-0.2,0.2l-1.8-0.3L91,55.1
	C90.9,55.1,90.9,55.1,90.8,55.1z"/>
<polygon class="st1" points="116.9,64.9 116.9,80.4 108.7,80.4 116.9,64.9 "/>
<polygon class="st1" points="117.6,64.8 117.6,80.3 126.2,80.3 117.6,64.8 "/>
<path class="st1" d="M111.3,83.2c-1.3-0.8-1.8-2-1.8-2l11.9,0.1c-0.4,2-2.6,3.5-2.6,3.5c1.5-1.6,1.4-3.2,1.4-3.2h-9.1
	C110.7,82.1,111.3,83.2,111.3,83.2L111.3,83.2z"/>
<path class="st1" d="M117.1,64.9c0.6,0,1.1-0.5,1.1-1.2c0-0.6-0.5-1.2-1.1-1.2s-1.1,0.5-1.1,1.2C116,64.4,116.5,64.9,117.1,64.9
	L117.1,64.9z"/>
<polygon class="st1" points="59.4,64.4 59.3,80 67.5,79.9 59.4,64.4 "/>
<polygon class="st1" points="58.7,64.3 58.5,79.9 49.8,79.9 58.7,64.3 "/>
<path class="st1" d="M56,81.7c-1.3-0.4-1.8-1-1.8-1h11.9c-0.4,1-2.6,1.8-2.6,1.8c1.5-0.8,1.4-1.6,1.4-1.6h-9.1
	C55.4,81.2,56,81.7,56,81.7L56,81.7z"/>
<path class="st1" d="M59.1,64.6c0.6,0,1.1-0.5,1.1-1.2c0-0.7-0.5-1.2-1.1-1.2S58,62.7,58,63.4C58,64.1,58.5,64.6,59.1,64.6
	L59.1,64.6z"/>
<path class="st1" d="M113.5,123.6c0.9,0.7,1.6,1.9,1.6,3.5c0.2,2.4-1.2,4.4-2.9,4.6c-1.7,0.2-3.2-1.5-3.3-3.9
	c-0.1-1.6,0.5-3.1,1.4-3.9l0.2-0.2c-0.9-0.7-1.5-2-1.6-3.5c-0.1-2.4,1.2-4.4,2.9-4.6c1.7-0.2,3.2,1.6,3.3,4c0.1,1.6-0.5,3.1-1.4,3.9
	L113.5,123.6L113.5,123.6z"/>
<path class="st1" d="M92.9,161.5c0.5-0.4,1.3-0.9,1.2-2.2c-0.1-0.7-0.5-1.4-1.6-1.4c-1,0.1-1.4,0.8-1.4,1.5
	C91.1,160.5,92.4,161.2,92.9,161.5L92.9,161.5z"/>
<path class="st1" d="M88.3,4.1C41.8,4.1,4.1,41.8,4.1,88.3c0,46.5,37.7,84.3,84.2,84.3c46.5,0,84.3-37.7,84.3-84.3
	C172.5,41.8,134.8,4.1,88.3,4.1z M166.9,79.3l-9,5.2c-1.2,0.7-1.3,0.9-1.3,1.7h-0.3l-0.5-4.2l0.3-0.1c0.1,0.6,0.2,1.2,0.8,1.1
	c0.3,0,0.8-0.3,1-0.4l1.5-0.8l-0.4-4.4l-2-0.5c-0.2-0.1-0.5-0.1-0.7-0.1c-0.7,0.1-0.6,0.9-0.6,1.2h-0.3l-0.4-3.3h0.3
	c0.1,0.3,0.1,0.5,0.4,0.8c0.5,0.3,1.8,0.7,2.5,0.9l8.5,2.6L166.9,79.3z M162.6,62.2l0.3-0.1l2.1,8.6l-2.3,0.7l-0.1-0.4
	c1.4-0.6,1.5-1.1,1.1-2.9l-0.5-2.2c-0.1-0.4-0.2-0.5-0.7-0.4l-3.6,0.9l0.7,2.5c0.3,1.5,0.8,1.5,2,1.4l0.1,0.4l-3.8,0.9l-0.1-0.4
	c1.3-0.5,1.4-0.8,1.1-2.2l-0.5-2.5l-4.1,1c-0.7,0.2-0.7,0.2-0.1,2.6c0.5,2,1.2,2.7,3,3l0.1,0.5l-3-0.1l-2.2-8.8l0.3-0.1
	c0.3,1,0.5,1.4,1.8,1l7.2-1.8C162.8,63.7,162.8,63.3,162.6,62.2z M157.4,49.8l2,4.2c0.7,1.4,1.5,4-0.8,5.1c-2,1-3.3-0.8-3.9-1.5
	l-2.3,4.9c-0.2,0.5-0.3,1-0.1,1.6l-0.3,0.2l-1.2-2.5l2.9-5.8l-0.4-0.8l-3,1.4c-1,0.5-1.2,0.8-0.7,2l-0.3,0.1l-2-4.2l0.3-0.2
	c0.7,1.2,1,1.1,2.1,0.5l6.5-3.1c1.1-0.5,1.2-0.8,0.8-1.9L157.4,49.8z M152.8,43.8c-1-1.5-1.5-1.8-3.2-1l-0.2-0.3l2.4-1.5l5.2,7.9
	l-2.3,1.6l-0.2-0.3c1.3-1.3,1.3-1.9,0.3-3.4l-0.5-0.8l-7.2,4.7c-0.9,0.6-1.1,1-0.3,2.2l-0.3,0.2l-2.7-4.1l0.2-0.2
	c0.9,1.3,1.3,1.1,2.3,0.4l7-4.6L152.8,43.8z M139.9,28.8l0.2-0.2l6.4,6.1l-1.6,1.8l-0.3-0.3c0.9-1.3,0.7-1.8-0.6-3.1l-1.6-1.5
	c-0.3-0.2-0.4-0.4-0.8,0.1l-2.5,2.7l1.9,1.8c1.1,1,1.5,0.9,2.4,0.1l0.3,0.3l-2.6,2.9l-0.3-0.3c0.8-1.1,0.7-1.5-0.3-2.4l-1.9-1.8
	l-2.9,3c-0.4,0.5-0.4,0.5,1.4,2.3c1.5,1.4,2.5,1.6,4.2,0.9l0.3,0.3l-2.5,1.5l-6.6-6.2l0.2-0.2c0.8,0.7,1.2,0.8,2.1-0.1l5.1-5.4
	C140.8,29.9,140.6,29.6,139.9,28.8z M129.1,20.6l3.8,2.6l-0.2,0.3c-1.1-0.7-1.4-0.6-2.1,0.4l-1.9,2.7l4.2,2.9l1.9-2.6
	c0.7-1,0.6-1.3-0.3-2.1l0.2-0.3l3.8,2.7l-0.2,0.3c-1.1-0.7-1.4-0.6-2.1,0.3l-4.3,6.1c-0.7,0.9-0.7,1.3,0.3,2.1l-0.2,0.3l-3.8-2.7
	l0.2-0.3c1.2,0.8,1.4,0.5,2.1-0.5l1.9-2.7l-4.2-2.9l-2,2.8c-0.7,0.9-0.7,1.3,0.3,2.1l-0.2,0.3l-3.8-2.7l0.2-0.3
	c1.2,0.8,1.4,0.5,2.1-0.5l4.2-5.9c0.7-1,0.6-1.3-0.3-2.1L129.1,20.6z M117.2,26.3c1.4,0.6,1.6,0.3,2.1-0.8l3.8-7.5l-0.8-0.4
	c-1.6-0.9-2.2-0.8-3.3,0.7l-0.4-0.2l1.4-2.5l8.4,4.3l-1.2,2.6l-0.3-0.2c0.5-1.8,0.2-2.3-1.4-3.1l-0.8-0.4l-3.8,7.6
	c-0.5,1-0.5,1.4,0.7,2.1l-0.1,0.3l-4.4-2.2L117.2,26.3z M103.2,11l0.1-0.3l8.6,2.2l-0.5,2.4l-0.4-0.1c0.1-1.5-0.2-1.9-2-2.4
	l-2.3-0.5c-0.4-0.1-0.5-0.1-0.7,0.4l-0.9,3.6l2.4,0.6c1.3,0.3,1.7,0.1,2.1-1.1l0.4,0.1l-0.9,3.8l-0.4-0.1c0.2-1.4-0.2-1.6-1.4-2
	l-2.4-0.7l-0.9,3.6c-0.3,1.2,0,1.5,1.1,1.9l-0.1,0.3l-4.6-1.2l0.1-0.3c1.2,0.2,1.5,0.1,1.8-1.3l1.8-7
	C104.6,11.6,104.2,11.4,103.2,11z M91.2,14.8c0.4-3.8,3.3-5.5,6.1-5.2c2.7,0.3,5.2,2.5,4.8,6.4c-0.4,3.6-3.1,5.4-6.1,5.1
	C92.9,20.8,90.7,18.3,91.2,14.8z M84.5,9.2l0.3,2.9h-0.4c-0.5-1.8-1-2.1-2.9-1.9l-0.9,0.1l0.7,8.6c0.1,1.1,0.3,1.4,1.7,1.4v0.3
	l-4.9,0.3v-0.3c1.5-0.2,1.5-0.6,1.4-1.8L79,10.3l-0.9,0.1c-1.8,0.1-2.3,0.5-2.5,2.3l-0.4,0.1l-0.1-2.9L84.5,9.2z M65.8,12.3l8.3,6.1
	h0.1L72.7,13c-0.5-1.9-1-1.9-2.1-1.6L70.5,11l3.8-1l0.1,0.3c-1,0.4-1.5,0.6-1,2.5l2.3,8.5l-0.3,0.1l-9.5-7h-0.1l1.7,6.3
	c0.4,1.7,0.9,2,2.1,1.7l0.1,0.3l-3.8,1l-0.1-0.3c1.2-0.4,1.5-0.7,1-2.5l-1.9-7.1c-0.9-0.6-1.2-0.7-1.8-0.4L63,13.1L65.8,12.3z
	 M60.5,14.3l1,2.1l-0.4,0.2c-0.8-1.3-1.4-1.3-3-0.5L56,17c-0.3,0.1-0.5,0.2-0.3,0.7l1.5,3.4l2.4-1c1.3-0.6,1.3-1,1-2.2l0.4-0.2
	l1.6,3.5l-0.4,0.2c-0.7-1.1-1-1.2-2.3-0.7l-2.4,1l1.7,3.8c0.3,0.7,0.3,0.7,2.5-0.4c1.9-0.8,2.5-1.6,2.5-3.5l0.4-0.2l0.4,2.9L56.9,28
	l-0.1-0.3c0.9-0.5,1.2-0.8,0.7-2L54.4,19c-0.5-1.2-0.9-1.1-1.9-0.8l-0.2-0.3L60.5,14.3z M41,25.2l7.9,4.9L47.3,21l2.7-1.8l0.2,0.2
	c-0.9,0.7-1.2,1-0.4,2.1l4.1,6.2c0.7,1.1,1.1,1,2,0.4l0.2,0.3l-4,2.6l-0.2-0.2c1-0.8,1.1-1.2,0.3-2.3l-4.2-6.3v0.1l1.8,10.3
	l-0.2,0.2l-8.6-5.3L45,33c1,1.4,1.5,1.5,2.5,0.9l0.2,0.3l-3.3,2.2l-0.2-0.3c1-0.8,1.2-1.2,0.2-2.7l-3.8-5.7c-0.7-1.1-1.1-1-2.1-0.4
	l-0.2-0.2L41,25.2z M37.4,27.9l2,2l-0.3,0.3c-1.5-1.1-2-1-3.4,0.2L35,31.1l5.9,6.3c0.8,0.8,1.2,0.9,2.2,0l0.2,0.2l-3.6,3.3l-0.2-0.2
	c1-1.1,0.8-1.4,0-2.3l-5.8-6.1l-0.7,0.6c-1.3,1.3-1.4,1.8-0.4,3.4l-0.3,0.3l-1.9-2.1L37.4,27.9z M26.3,39.5c0.9-1.2,3-3.1,4.9-1.5
	c1.8,1.4,0.7,3.3,0.3,4.1H37c0.6,0,1-0.1,1.5-0.6l0.2,0.2l-1.7,2.1l-6.5-0.2L30,44.4l2.6,2.1c0.9,0.7,1.2,0.8,2.1-0.2l0.2,0.2
	l-2.9,3.6l-0.3-0.2c0.8-1.1,0.5-1.4-0.4-2.2l-5.7-4.6c-0.9-0.8-1.3-0.7-2.1,0.2l-0.2-0.2L26.3,39.5z M18.8,50.3l10.3,0.9
	c1.3,0.1,1.6,0,2-0.6l0.3,0.2l-2,3.7l-0.3-0.2c0.3-0.5,0.5-1,0.1-1.3c-0.3-0.2-0.9-0.2-1.1-0.2l-1.8-0.2l-2.1,3.8l1.4,1.6
	c0.1,0.2,0.3,0.3,0.5,0.4c0.6,0.3,1-0.3,1.2-0.7l0.3,0.2l-1.6,2.9l-0.3-0.2c0.1-0.2,0.2-0.5,0.1-0.9c-0.2-0.5-1-1.6-1.5-2.2l-5.5-7
	L18.8,50.3z M14.9,59.4c0.8-2.1,2.4-3.7,4.4-3c1.2,0.4,1.6,1.4,1.7,1.8c0.4,0.9,0.3,2-0.3,3.7c-0.2,0.3-0.3,0.7-0.4,1l2.9,1.1
	c1.1,0.4,1.5,0.3,2-0.9l0.3,0.2l-1.7,4.3l-0.3-0.1c0.4-1.3,0.1-1.5-1.1-1.9L15.5,63c-1.1-0.4-1.4-0.3-1.9,0.8l-0.3-0.1L14.9,59.4z
	 M12.6,65.9l2.3,0.5l-0.1,0.4c-1.5-0.2-1.9,0.2-2.4,2L11.9,71c-0.1,0.3-0.1,0.5,0.4,0.7l3.6,0.9l0.6-2.5c0.4-1.4,0-1.7-1.1-2.2
	l0.1-0.3l3.7,0.9l-0.1,0.4c-1.4-0.2-1.6,0.1-2,1.4l-0.6,2.5l4,1c0.7,0.2,0.7,0.2,1.3-2.3c0.5-2,0.3-3-1.2-4.1l0.1-0.4l2.6,1.4
	l-2.2,8.8l-0.3-0.1c0.2-1,0.2-1.4-1.1-1.8l-7.2-1.8c-1.3-0.3-1.5,0.1-1.8,1l-0.3-0.1L12.6,65.9z M9.5,82.1c0.4-4,2.5-6.5,6.3-6.1
	c2.2,0.2,5.4,1.9,4.8,7l-0.5,4.7l-0.3-0.1c0.1-1.3-0.2-1.5-1.3-1.6L11,85.3c-1.3-0.1-1.4,0.1-1.6,1.3l-0.3-0.1L9.5,82.1z
	 M10.9,103.4l-0.3,0.1l-1.2-8.8l2.4-0.4l0.1,0.4c-1.4,0.4-1.6,0.9-1.4,2.7l0.3,2.3c0.1,0.3,0.1,0.5,0.7,0.4l3.7-0.5L14.7,97
	c-0.2-1.5-0.7-1.6-1.9-1.6L12.8,95l3.8-0.5l0.1,0.4c-1.3,0.4-1.5,0.7-1.3,2.1l0.3,2.5l4.1-0.5c0.7-0.1,0.7-0.1,0.4-2.6
	c-0.3-2.1-0.9-2.9-2.7-3.3l-0.1-0.4l2.9,0.3l1.3,8.9l-0.3,0.1c-0.2-1-0.4-1.4-1.7-1.2l-7.4,1C10.9,101.9,10.9,102.3,10.9,103.4z
	 M14.5,116.8l-1.3-4.4l0.3-0.1c0.5,1.2,0.7,1.3,1.9,1l3.1-0.9l-1.4-4.9l-3.1,0.9c-1.2,0.4-1.3,0.7-1,1.9l-0.3,0.1l-1.4-4.5l0.3-0.1
	c0.4,1.2,0.7,1.4,1.9,1l7.1-2.1c1-0.3,1.3-0.6,1-1.9l0.3-0.1l1.3,4.5l-0.3,0.1c-0.5-1.4-0.8-1.3-2-0.9l-3.1,0.9l1.4,4.8l3.3-1
	c1.1-0.3,1.3-0.5,1-1.8l0.3-0.1l1.3,4.4l-0.3,0.1c-0.4-1.3-0.8-1.3-2-0.9l-7,2.1c-1.2,0.3-1.3,0.6-1,1.8L14.5,116.8z M27.7,119.8
	c-0.7-1.4-1.1-1.3-2.2-0.7l-7.6,3.5l0.4,0.8c0.8,1.6,1.3,1.9,3.1,1.5l0.2,0.4l-2.6,1.1l-4-8.6l2.5-1.3l0.2,0.4
	c-1.5,1.1-1.6,1.6-0.8,3.3l0.4,0.8l7.8-3.6c1-0.5,1.3-0.8,0.7-2.1l0.3-0.1l2,4.4L27.7,119.8z M69.9,166.4l-0.1,0.3l-4.4-1.2l0.1-0.3
	c0.9,0.2,1.5,0.3,1.9-0.9l1.9-7.3c0.1-0.4,0.2-0.8-0.4-0.9c-0.2-0.1-0.2-0.1-1.2,0.1l0.1-0.2l3.3-0.7l0.1,0.1l-2.5,9.8
	C68.4,165.8,68.7,166.1,69.9,166.4z M84.6,157.7L80,168.3l-1.1-0.1l4.2-9.7l-3.6-0.3c-1-0.1-1.4,0.3-2,1.2l-0.3-0.2l0.9-1.6l0.3-0.7
	l6.1,0.6V157.7z M93.1,168.6c-2.1,0.2-3.2-1.2-3.3-2.4c-0.1-1.5,0.5-2,2-3.3c-1.5-1.2-2.2-1.6-2.3-3c-0.1-1.7,1.5-2.7,3-2.8
	c1.9-0.1,3,0.9,3.1,2.2c0.1,1.5-1.2,2.3-2.1,2.9c2.4,1.5,2.8,2.4,2.9,3.5C96.3,166.5,95.9,168.4,93.1,168.6z M103,167.5l-0.1-0.3
	c3.8-1.6,3.8-5.5,3.8-5.9h-0.1c-0.5,0.8-1.3,1.3-2.1,1.4c-2.2,0.5-3.4-1.2-3.7-2.5c-0.5-2.1,0.4-4.2,2.5-4.7c2-0.5,4,1,4.7,3.7
	C108.7,162.6,107,166.3,103,167.5z M88.3,152.3c-35.3,0-64-28.7-64-64s28.7-64,64-64c35.3,0,64.1,28.7,64.1,64
	S123.6,152.3,88.3,152.3z M160.4,120.5l-0.3-0.1c0.3-0.7,0.4-1.1,0-1.3c-0.2-0.1-0.5-0.1-0.8,0l-4.4,0.8l2.5,3.7
	c0.1,0.2,0.3,0.4,0.5,0.5c0.4,0.2,0.8-0.4,0.9-0.8l0.3,0.1l-1.5,3.3l-0.3-0.1c0.2-0.6,0.4-1.1-0.8-2.9l-2.5-3.8l-3-1.3
	c-1.1-0.5-1.4-0.4-2,1l-0.3-0.1l2.1-4.7l0.3,0.1c-0.6,1.5-0.3,1.8,0.9,2.3l2.7,1.2l3.8-0.7c3-0.6,3.2-0.8,3.5-1.4l0.3,0.1
	L160.4,120.5z M163.8,111.2c-0.4,1.4-1.6,4-4.1,3.2c-2.1-0.7-1.9-2.9-1.8-3.7l-5,2c-0.5,0.2-0.9,0.5-1.2,1.2l-0.3-0.1l0.8-2.6
	l6.1-2.3l0.2-0.9l-3.1-1c-1.1-0.3-1.4-0.3-1.9,1l-0.3-0.1l1.4-4.4l0.3,0.1c-0.3,1.3,0,1.5,1.2,1.9l7,2.1c1.2,0.4,1.4,0.2,1.9-0.9
	l0.3,0.1L163.8,111.2z M166.4,99.5l-0.3-0.1c0.1-1.3-0.1-1.5-1.3-1.7l-5.3-0.7c-1-0.2-3.3-0.4-3.7,2.4c-0.2,1.3,0.3,2.4,1,2.9
	c0.3,0.3,0.8,0.5,2.2,0.7l4.5,0.6c1.8,0.2,2.1-0.2,2.3-1.3l0.3,0.1l-0.5,3.8h-0.3c0.1-1.3-0.2-1.6-1.9-1.9l-4.3-0.5
	c-1.3-0.2-4.4-0.5-3.9-4.9c0.5-4.1,3.8-3.7,4.8-3.6l5.2,0.7c1.3,0.2,1.5-0.1,1.7-1.3l0.3,0.1L166.4,99.5z M164.2,93.6v-0.4
	c1.4-0.3,2.9-1.4,2.9-3.2c-0.1-0.8-0.5-1.7-1.6-1.6c-2.5,0.1-2.7,5.7-6.2,5.7c-1.4,0-3-1.1-3.1-3.5c-0.1-1.3,0.5-2.1,0.5-2.6
	c0-0.3-0.3-0.5-0.5-0.5v-0.4l3.5-0.5v0.4c-0.8,0.3-2.9,1.2-2.9,3.5c0,1.4,1,2,1.9,2c1,0,1.5-0.3,2.9-2.8c0.9-1.5,1.6-2.6,3.2-2.6
	c1.9-0.1,2.9,1.4,2.9,3c0.1,1-0.5,1.9-0.5,2.3c0,0.5,0.4,0.5,0.5,0.6v0.3L164.2,93.6z"/>
<path class="st1" d="M105.9,159.4c-0.2-0.8-0.8-3.5-2.6-3c-1.2,0.3-1.2,1.6-0.9,2.7c0.2,1,0.9,2.5,2.4,2.2c0.4-0.1,0.9-0.5,1.2-0.8
	c0.2-0.2,0.2-0.3,0.1-0.6L105.9,159.4L105.9,159.4z"/>
<path class="st1" d="M18.8,84.1c0.5,0.1,0.7-0.1,0.7-0.8c0.1-1,0.5-4.7-4-5.2c-1.3-0.2-2.5,0.1-3.6,1c-0.7,0.7-1.2,1.5-1.4,3.4
	c-0.1,0.7,0.2,0.7,0.5,0.8L18.8,84.1L18.8,84.1z"/>
<path class="st1" d="M19.4,62.5c0.1-0.3,0.2-0.5,0.3-0.8c0.2-0.5,1-2.5-1.2-3.3c-2-0.8-2.9,1.3-3.1,1.9c-0.2,0.4-0.2,0.6,0.2,0.8
	L19.4,62.5L19.4,62.5z"/>
<polygon class="st1" points="25.4,52.5 20.9,52.1 23.7,55.6 25.4,52.5 "/>
<path class="st1" d="M29.5,43.8c0.8-1,2.3-2.8,0.5-4.2c-1.6-1.3-2.9,0.2-3.3,0.7c-0.5,0.6-0.5,0.8-0.2,1.1L29.5,43.8L29.5,43.8z"/>
<path class="st1" d="M99.8,15.8c0.4-3.5-1.2-4.9-2.7-5c-1.5-0.2-3.3,0.9-3.7,4.3c-0.4,3.3,1,4.8,2.7,5
	C97.8,20.3,99.5,19.1,99.8,15.8L99.8,15.8z"/>
<path class="st1" d="M154.2,55.1c0.6,1.2,1.6,3.2,3.6,2.3c1.9-0.9,1-2.7,0.8-3.2c-0.4-0.8-0.5-0.8-0.9-0.7L154.2,55.1L154.2,55.1z"
	/>
<polygon class="st1" points="160.2,81.2 164.2,79 159.8,77.7 160.2,81.2 "/>
<path class="st1" d="M159.3,108.4c-0.4,1.3-1,3.5,1.1,4.1c1.9,0.5,2.5-1.3,2.7-1.9c0.2-0.8,0.2-0.9-0.3-1L159.3,108.4L159.3,108.4z"
	/>
<path class="st1" d="M91.4,165.9c0.1,1,0.8,1.9,1.9,1.8c0.8-0.1,1.5-0.7,1.4-1.6c-0.1-1-0.7-1.4-2.3-2.4
	C91.9,164.1,91.3,164.7,91.4,165.9L91.4,165.9z"/>
<path class="st1" d="M137.7,52.7l-19.9-11.3c0,0-13.6,11.8-29.6-3.6c0,0-10.7,13.7-28.8,3.2l-19,11.5c0,0,4.9,1.4,5.2,16.1l-3,37.4
	l45.7-33.7l45.8,33.2l-1.6-40.8C132.3,64.7,131.3,59.7,137.7,52.7z M107.6,81l8.3-16.1c-0.3-0.3-0.4-0.7-0.4-1.1
	c0-0.5,0.2-0.9,0.5-1.2l-0.4,0c0,0-3.6-0.8-4.6-4.3H90.2l0.9,7c0,0-0.3,2.6-2.7,2.3c0,0-2,0.3-2.7-2.3l0.3-7.2L65,58.3
	c-0.9,3.5-4.5,4.1-4.5,4.1l-0.3,0c0.3,0.3,0.4,0.7,0.4,1.1c0,0.4-0.1,0.7-0.3,1l8.2,16.2c-11.2,13.5-19.4-0.8-19.4-0.8l8.7-15.4
	c-0.2-0.3-0.4-0.6-0.4-1c0-0.5,0.2-0.9,0.5-1.2l-0.2,0c-4.6-2.4-4.9-6.5-4.9-6.5l2.4-0.5c3.7,5.8,7.5,0.2,7.5,0.2l20.5-4.3l3.6,3.8
	l1.4-9.5l0.1,0.3l1.3,9.2l3.2-3.8l20.5,4.5c0,0,3.7,5.5,7.5-0.2l2.5,0.5c0,0-0.3,4.1-4.9,6.5l-0.1,0c0.3,0.3,0.5,0.7,0.5,1.2
	c0,0.4-0.1,0.7-0.3,1l8.7,15.6C127.1,80.4,118.7,94.6,107.6,81z"/>
</svg>
